<svg width="1405" height="796" viewBox="0 0 1405 796" fill="none" xmlns="http://www.w3.org/2000/svg">
<g clip-path="url(#clip0_958_3322)">
<path d="M414.412 458.46C218.878 446.982 246.296 580.951 118.614 607.048C0.466863 631.207 -0.495169 757.533 0.0565883 795.901H300.411C300.411 795.901 434.898 459.663 414.412 458.46Z" fill="#85848C"/>
<path d="M144.15 557.118C149.767 546.56 160.321 539.144 171.78 535.762C178.628 533.738 186.14 533.073 192.818 535.634C202.537 539.356 208.833 549.773 209.073 560.175C209.3 570.577 204.079 580.654 196.411 587.688C186.65 596.646 169.276 606.312 156.232 599.76C140.316 591.778 136.015 572.445 144.164 557.104L144.15 557.118Z" fill="#444347"/>
<path d="M58.5994 550.155C48.2151 542.343 41.8345 529.237 39.8538 515.608C38.6654 507.471 39.0191 498.724 42.6551 491.379C47.9463 480.665 59.8444 474.75 70.8937 475.825C81.943 476.901 91.8746 484.204 98.2411 493.926C106.348 506.31 114.157 527.553 105.414 541.734C94.7466 559.043 73.6949 561.505 58.5994 550.155Z" fill="#5B5A60"/>
<path d="M177.949 511.546C171.016 520.732 159.401 528.247 145.791 529.832C131.573 531.502 117.255 526.605 105.923 519.769C84.2915 506.706 70.7805 485.959 70.0873 464.758C69.394 443.557 81.5327 422.314 102.273 408.416C113.237 401.071 127.215 395.608 141.703 396.231C156.275 396.839 169.672 403.661 178.147 412.832C186.621 422.003 190.597 433.297 191.785 444.534C193.964 464.999 191.644 493.375 177.949 511.532V511.546Z" fill="#444347"/>
<path d="M120.538 683.388H132.351L132.351 491.563H120.538L120.538 683.388Z" fill="#161618"/>
<path d="M120.112 614.092L128.466 622.448L176.194 574.703L167.841 566.347L120.112 614.092Z" fill="#161618"/>
<path d="M82.0256 526.414L73.6724 534.77L121.401 582.515L129.754 574.159L82.0256 526.414Z" fill="#161618"/>
<path d="M357.638 591.948C345.004 574.313 322.736 562.114 298.911 559.765C275.086 557.415 250.215 564.987 233.337 579.706C215.709 595.075 205.706 618.059 182.83 626.862C167.72 632.679 23.287 636.854 23.287 795.887H354.44L357.638 591.933V591.948Z" fill="#2C2C2E"/>
<path d="M460.958 403.222C450.686 400.349 439.001 403.35 431.375 410.794C423.749 418.238 420.467 429.858 423.084 440.203C423.523 441.93 425.136 444.152 426.735 443.387C428.333 442.623 429.21 440.769 429.253 439C429.295 437.231 428.644 435.504 427.866 433.919C425.334 428.768 420.991 424.126 415.36 422.951C409.333 421.692 402.655 425.074 400.123 430.678C397.576 436.283 399.43 443.543 404.339 447.237C404.961 436.325 397.18 426.97 386.951 423.163C376.723 419.342 364.202 422.937 357.539 431.584C350.875 440.231 350.606 453.266 356.902 462.182C358.727 464.758 361.91 467.192 364.796 465.89C367.102 464.829 367.852 461.658 366.862 459.323C365.872 456.988 363.608 455.417 361.274 454.441C351.483 450.351 338.835 455.913 335.228 465.89C331.62 475.868 337.817 488.237 347.946 491.337C349.361 485.746 347.989 483.17 342.938 480.382C337.888 477.608 331.62 477.75 326.173 479.646C317.19 482.774 309.988 490.629 307.668 499.871C305.348 509.112 307.965 519.429 314.417 526.435C316.383 528.572 318.859 530.497 321.759 530.822C324.659 531.148 327.928 529.365 328.366 526.478C328.748 523.944 326.81 521.467 324.391 520.632C321.971 519.797 319.269 520.335 316.949 521.411C311.729 523.831 307.923 529.082 307.244 534.799C306.565 540.517 309.041 546.518 313.554 550.084C314.657 538.677 303.24 528.303 291.809 529.138C280.377 529.973 270.941 540.432 269.71 551.825C268.479 563.218 274.549 574.681 283.745 581.531C287.593 584.404 293.69 586.272 296.69 582.522C298.798 579.889 297.821 575.7 295.275 573.507C292.728 571.313 289.092 570.803 285.754 571.143C278.326 571.907 271.422 576.649 268.027 583.3C264.645 589.966 264.886 598.33 268.649 604.784C270.347 607.699 273.799 610.473 276.826 608.959C279.444 607.643 279.698 603.652 277.902 601.345C276.091 599.038 272.992 598.146 270.064 597.962C262.948 597.524 255.704 600.68 251.163 606.185C246.621 611.69 244.909 619.404 246.678 626.31H453.672L460.986 403.208L460.958 403.222Z" fill="#444347"/>
<path d="M353.436 572.912C343.165 570.039 331.479 573.04 323.853 580.484C316.228 587.928 312.945 599.547 315.563 609.893C316.001 611.62 317.614 613.842 319.213 613.077C320.811 612.313 321.689 610.459 321.731 608.69C321.773 606.921 321.123 605.194 320.345 603.609C317.812 598.458 313.469 593.816 307.838 592.641C301.811 591.381 295.133 594.764 292.601 600.368C290.054 605.973 291.908 613.233 296.817 616.927C297.44 606.015 289.658 596.66 279.43 592.853C269.201 589.032 256.68 592.627 250.017 601.274C243.353 609.921 243.084 622.956 249.38 631.872C251.205 634.448 254.388 636.882 257.274 635.58C259.581 634.519 260.33 631.348 259.34 629.013C258.35 626.678 256.086 625.107 253.752 624.131C243.962 620.04 231.314 625.602 227.706 635.58C224.098 645.558 230.295 657.927 240.425 661.026C241.839 655.436 240.467 652.86 235.416 650.072C230.366 647.298 224.098 647.44 218.651 649.336C209.668 652.464 202.467 660.319 200.146 669.56C197.826 678.802 200.443 689.119 206.895 696.125C208.861 698.262 211.337 700.187 214.237 700.512C217.138 700.838 220.406 699.055 220.844 696.167C221.226 693.634 219.288 691.157 216.869 690.322C214.45 689.487 211.747 690.025 209.427 691.101C204.207 693.521 200.401 698.771 199.722 704.489C199.043 710.207 201.519 716.207 206.032 719.774C207.135 708.367 195.718 697.993 184.287 698.828C172.856 699.663 163.419 710.122 162.188 721.515C160.957 732.908 167.027 744.371 176.223 751.221C180.071 754.094 186.169 755.962 189.168 752.212C191.276 749.579 190.3 745.39 187.753 743.197C185.206 741.003 181.571 740.493 178.232 740.833C170.804 741.597 163.9 746.338 160.505 752.99C157.123 759.656 157.364 768.02 161.127 774.474C162.825 777.389 166.277 780.163 169.305 778.649C171.922 777.333 172.177 773.342 170.38 771.035C168.569 768.728 165.471 767.836 162.542 767.652C155.426 767.214 148.182 770.37 143.641 775.875C139.099 781.38 137.388 789.094 139.156 796H346.15L353.464 572.898L353.436 572.912Z" fill="#444347"/>
<path d="M1086.69 472.995C1097.97 445.086 1082.01 416.03 1103.46 413.596C1204.37 402.161 1193.63 527.539 1280.44 547.735C1404.94 576.705 1405.52 745.489 1404.93 795.901H1089.54L1086.68 472.995H1086.69Z" fill="#2C2C2E"/>
<path d="M1092.3 533.978C1100.8 520.264 1115.78 510.768 1131.81 508.942C1147.84 507.117 1164.58 513.004 1175.94 524.454C1187.79 536.413 1194.53 554.287 1209.92 561.137C1220.09 565.666 1231.79 564.223 1242.81 565.822C1267.33 569.388 1287.59 588.438 1298.09 610.884C1308.58 633.33 1317.71 667.862 1317.27 692.643H1094.46L1092.31 533.978H1092.3Z" fill="#85848C"/>
<path d="M868.381 241.5C859.878 227.786 844.896 218.29 828.867 216.464C812.837 214.639 796.101 220.526 784.74 231.976C772.884 243.935 766.15 261.809 750.757 268.659C740.585 273.188 728.885 271.744 717.864 273.344C693.346 276.91 673.087 295.96 662.59 318.406C652.092 340.852 642.967 375.384 643.405 400.165H866.216L868.367 241.5H868.381Z" fill="#5B5A60"/>
<path d="M909.833 335.502C901.331 321.788 886.348 312.292 870.319 310.466C854.29 308.64 837.553 314.528 826.193 325.977C814.337 337.936 807.603 355.811 792.21 362.661C782.038 367.19 770.338 365.746 759.317 367.345C734.799 370.912 714.54 389.961 704.042 412.407C693.545 434.853 684.419 469.386 684.858 494.167H907.669L909.819 335.502H909.833Z" fill="#85848C"/>
<path d="M517.958 444.633C507.687 441.76 496.001 444.76 488.376 452.205C480.75 459.649 477.468 471.268 480.085 481.614C480.524 483.34 482.137 485.562 483.735 484.798C485.334 484.034 486.211 482.18 486.254 480.411C486.296 478.642 485.645 476.915 484.867 475.33C482.335 470.178 477.992 465.536 472.361 464.362C466.334 463.102 459.656 466.485 457.124 472.089C454.577 477.693 456.431 484.954 461.34 488.648C461.962 477.736 454.181 468.381 443.952 464.574C433.724 460.753 421.203 464.347 414.539 472.995C407.876 481.642 407.607 494.677 413.903 503.593C415.728 506.168 418.911 508.617 421.797 507.301C424.103 506.239 424.853 503.069 423.863 500.734C422.872 498.399 420.609 496.828 418.274 495.851C408.484 491.761 395.836 497.323 392.229 507.301C388.621 517.278 394.818 529.648 404.947 532.747C406.362 527.157 404.99 524.581 399.939 521.793C394.888 519.019 388.621 519.161 383.174 521.057C374.19 524.185 366.989 532.039 364.669 541.281C362.349 550.523 364.966 560.84 371.417 567.846C373.384 569.997 375.86 571.907 378.76 572.233C381.66 572.558 384.928 570.775 385.367 567.888C385.749 565.355 383.811 562.878 381.392 562.043C378.972 561.208 376.27 561.746 373.95 562.821C368.729 565.242 364.924 570.492 364.245 576.21C363.566 581.928 366.041 587.928 370.555 591.495C371.658 580.088 360.227 569.714 348.81 570.549C337.392 571.384 327.942 581.843 326.711 593.235C325.48 604.628 331.55 616.092 340.745 622.942C344.594 625.815 350.691 627.683 353.691 623.932C355.799 621.3 354.822 617.111 352.276 614.917C349.729 612.724 346.093 612.214 342.754 612.554C335.327 613.318 328.423 618.059 325.042 624.711C321.66 631.363 321.901 639.741 325.664 646.195C327.362 649.11 330.814 651.884 333.841 650.37C336.459 649.053 336.713 645.062 334.917 642.755C333.106 640.449 330.007 639.557 327.079 639.373C319.963 638.934 312.719 642.09 308.178 647.596C303.636 653.101 301.924 661.876 303.693 668.782H510.687L518.001 444.619L517.958 444.633Z" fill="#161618"/>
<path d="M565.693 308.23L666.664 230.886L776.959 308.23V795.901H565.693V308.23Z" fill="#161618"/>
<path d="M450.885 308.23H565.693L666.664 230.886H555.69L450.885 308.23Z" fill="#444347"/>
<path d="M1137.89 122.986H926.626V640.675H1137.89V122.986Z" fill="#161618"/>
<path d="M926.626 122.986H811.804V640.675H926.626V122.986Z" fill="#444347"/>
<path d="M842.377 150.4H830.578V183.22H842.377V150.4Z" fill="#85848C"/>
<path d="M873.446 150.4H861.646V183.22H873.446V150.4Z" fill="#85848C"/>
<path d="M904.514 150.4H892.715V183.22H904.514V150.4Z" fill="#85848C"/>
<path d="M842.377 212.558H830.578V245.378H842.377V212.558Z" fill="#85848C"/>
<path d="M873.446 212.558H861.646V245.378H873.446V212.558Z" fill="#85848C"/>
<path d="M904.514 212.558H892.715V245.378H904.514V212.558Z" fill="#85848C"/>
<path d="M842.377 274.731H830.578V307.551H842.377V274.731Z" fill="#85848C"/>
<path d="M873.446 274.731H861.646V307.551H873.446V274.731Z" fill="#85848C"/>
<path d="M904.514 274.731H892.715V307.551H904.514V274.731Z" fill="#85848C"/>
<path d="M842.377 336.889H830.578V369.709H842.377V336.889Z" fill="#85848C"/>
<path d="M873.446 336.889H861.646V369.709H873.446V336.889Z" fill="#85848C"/>
<path d="M904.514 336.889H892.715V369.709H904.514V336.889Z" fill="#85848C"/>
<path d="M842.377 399.047H830.578V431.867H842.377V399.047Z" fill="#85848C"/>
<path d="M873.446 399.047H861.646V431.867H873.446V399.047Z" fill="#85848C"/>
<path d="M904.514 399.047H892.715V431.867H904.514V399.047Z" fill="#85848C"/>
<path d="M943.703 496.219L842.731 418.861L732.436 496.219V795.901H943.703V496.219Z" fill="#444347"/>
<path d="M340.859 629.013C340.859 634.603 336.331 639.118 330.757 639.118C325.183 639.118 320.656 634.589 320.656 629.013C320.656 623.437 325.183 618.908 330.757 618.908C336.331 618.908 340.859 623.437 340.859 629.013Z" fill="#161618"/>
<path d="M762.868 734.521H754.719C752.844 734.521 751.323 736.042 751.323 737.918V763.534C751.323 765.41 752.844 766.931 754.719 766.931H762.868C764.743 766.931 766.263 765.41 766.263 763.534V737.918C766.263 736.042 764.743 734.521 762.868 734.521Z" fill="#85848C"/>
<path d="M762.868 672.349H754.719C752.844 672.349 751.323 673.869 751.323 675.745V701.361C751.323 703.237 752.844 704.758 754.719 704.758H762.868C764.743 704.758 766.263 703.237 766.263 701.361V675.745C766.263 673.869 764.743 672.349 762.868 672.349Z" fill="#85848C"/>
<path d="M762.868 610.19H754.719C752.844 610.19 751.323 611.711 751.323 613.587V639.203C751.323 641.079 752.844 642.6 754.719 642.6H762.868C764.743 642.6 766.263 641.079 766.263 639.203V613.587C766.263 611.711 764.743 610.19 762.868 610.19Z" fill="#85848C"/>
<path d="M762.868 548.032H754.719C752.844 548.032 751.323 549.553 751.323 551.429V577.045C751.323 578.921 752.844 580.441 754.719 580.441H762.868C764.743 580.441 766.263 578.921 766.263 577.045V551.429C766.263 549.553 764.743 548.032 762.868 548.032Z" fill="#85848C"/>
<path d="M785.801 734.521H793.936C795.818 734.521 797.331 736.05 797.331 737.918V763.52C797.331 765.402 795.804 766.916 793.936 766.916H785.801C783.92 766.916 782.406 765.388 782.406 763.52V737.918C782.406 736.035 783.934 734.521 785.801 734.521Z" fill="#85848C"/>
<path d="M785.801 672.349H793.936C795.818 672.349 797.331 673.877 797.331 675.745V701.347C797.331 703.23 795.804 704.744 793.936 704.744H785.801C783.92 704.744 782.406 703.215 782.406 701.347V675.745C782.406 673.863 783.934 672.349 785.801 672.349Z" fill="#85848C"/>
<path d="M785.801 610.19H793.936C795.818 610.19 797.331 611.719 797.331 613.587V639.189C797.331 641.071 795.804 642.586 793.936 642.586H785.801C783.92 642.586 782.406 641.057 782.406 639.189V613.587C782.406 611.705 783.934 610.19 785.801 610.19Z" fill="#85848C"/>
<path d="M785.801 548.032H793.936C795.818 548.032 797.331 549.56 797.331 551.429V577.031C797.331 578.913 795.804 580.427 793.936 580.427H785.801C783.92 580.427 782.406 578.899 782.406 577.031V551.429C782.406 549.546 783.934 548.032 785.801 548.032Z" fill="#85848C"/>
<path d="M816.869 734.521H825.004C826.886 734.521 828.4 736.05 828.4 737.918V763.52C828.4 765.402 826.872 766.916 825.004 766.916H816.869C814.988 766.916 813.474 765.388 813.474 763.52V737.918C813.474 736.035 815.002 734.521 816.869 734.521Z" fill="#85848C"/>
<path d="M816.869 672.349H825.004C826.886 672.349 828.4 673.877 828.4 675.745V701.347C828.4 703.23 826.872 704.744 825.004 704.744H816.869C814.988 704.744 813.474 703.215 813.474 701.347V675.745C813.474 673.863 815.002 672.349 816.869 672.349Z" fill="#85848C"/>
<path d="M816.869 610.19H825.004C826.886 610.19 828.4 611.719 828.4 613.587V639.189C828.4 641.071 826.872 642.586 825.004 642.586H816.869C814.988 642.586 813.474 641.057 813.474 639.189V613.587C813.474 611.705 815.002 610.19 816.869 610.19Z" fill="#85848C"/>
<path d="M816.869 548.032H825.004C826.886 548.032 828.4 549.56 828.4 551.429V577.031C828.4 578.913 826.872 580.427 825.004 580.427H816.869C814.988 580.427 813.474 578.899 813.474 577.031V551.429C813.474 549.546 815.002 548.032 816.869 548.032Z" fill="#85848C"/>
<path d="M847.937 734.521H856.072C857.954 734.521 859.468 736.05 859.468 737.918V763.52C859.468 765.402 857.94 766.916 856.072 766.916H847.937C846.056 766.916 844.542 765.388 844.542 763.52V737.918C844.542 736.035 846.07 734.521 847.937 734.521Z" fill="#85848C"/>
<path d="M847.937 672.349H856.072C857.954 672.349 859.468 673.877 859.468 675.745V701.347C859.468 703.23 857.94 704.744 856.072 704.744H847.937C846.056 704.744 844.542 703.215 844.542 701.347V675.745C844.542 673.863 846.07 672.349 847.937 672.349Z" fill="#85848C"/>
<path d="M847.937 610.19H856.072C857.954 610.19 859.468 611.719 859.468 613.587V639.189C859.468 641.071 857.94 642.586 856.072 642.586H847.937C846.056 642.586 844.542 641.057 844.542 639.189V613.587C844.542 611.705 846.07 610.19 847.937 610.19Z" fill="#85848C"/>
<path d="M847.937 548.032H856.072C857.954 548.032 859.468 549.56 859.468 551.429V577.031C859.468 578.913 857.94 580.427 856.072 580.427H847.937C846.056 580.427 844.542 578.899 844.542 577.031V551.429C844.542 549.546 846.07 548.032 847.937 548.032Z" fill="#85848C"/>
<path d="M879.006 734.521H887.141C889.022 734.521 890.536 736.05 890.536 737.918V763.52C890.536 765.402 889.008 766.916 887.141 766.916H879.006C877.124 766.916 875.61 765.388 875.61 763.52V737.918C875.61 736.035 877.138 734.521 879.006 734.521Z" fill="#85848C"/>
<path d="M879.006 672.349H887.141C889.022 672.349 890.536 673.877 890.536 675.745V701.347C890.536 703.23 889.008 704.744 887.141 704.744H879.006C877.124 704.744 875.61 703.215 875.61 701.347V675.745C875.61 673.863 877.138 672.349 879.006 672.349Z" fill="#85848C"/>
<path d="M879.006 610.19H887.141C889.022 610.19 890.536 611.719 890.536 613.587V639.189C890.536 641.071 889.008 642.586 887.141 642.586H879.006C877.124 642.586 875.61 641.057 875.61 639.189V613.587C875.61 611.705 877.138 610.19 879.006 610.19Z" fill="#85848C"/>
<path d="M879.006 548.032H887.141C889.022 548.032 890.536 549.56 890.536 551.429V577.031C890.536 578.913 889.008 580.427 887.141 580.427H879.006C877.124 580.427 875.61 578.899 875.61 577.031V551.429C875.61 549.546 877.138 548.032 879.006 548.032Z" fill="#85848C"/>
<path d="M918.223 734.521H910.074C908.199 734.521 906.678 736.042 906.678 737.918V763.534C906.678 765.41 908.199 766.931 910.074 766.931H918.223C920.098 766.931 921.618 765.41 921.618 763.534V737.918C921.618 736.042 920.098 734.521 918.223 734.521Z" fill="#85848C"/>
<path d="M918.223 672.349H910.074C908.199 672.349 906.678 673.869 906.678 675.745V701.361C906.678 703.237 908.199 704.758 910.074 704.758H918.223C920.098 704.758 921.618 703.237 921.618 701.361V675.745C921.618 673.869 920.098 672.349 918.223 672.349Z" fill="#85848C"/>
<path d="M918.223 610.19H910.074C908.199 610.19 906.678 611.711 906.678 613.587V639.203C906.678 641.079 908.199 642.6 910.074 642.6H918.223C920.098 642.6 921.618 641.079 921.618 639.203V613.587C921.618 611.711 920.098 610.19 918.223 610.19Z" fill="#85848C"/>
<path d="M918.223 548.032H910.074C908.199 548.032 906.678 549.553 906.678 551.429V577.045C906.678 578.921 908.199 580.441 910.074 580.441H918.223C920.098 580.441 921.618 578.921 921.618 577.045V551.429C921.618 549.553 920.098 548.032 918.223 548.032Z" fill="#85848C"/>
<path d="M922.099 511.561H753.035C751.262 511.561 749.824 512.999 749.824 514.773V522.486C749.824 524.261 751.262 525.699 753.035 525.699H922.099C923.873 525.699 925.311 524.261 925.311 522.486V514.773C925.311 512.999 923.873 511.561 922.099 511.561Z" fill="#85848C"/>
<path d="M636.671 625.758C631.946 616.87 623.061 610.629 613.412 607.784C607.654 606.086 601.316 605.52 595.714 607.671C587.536 610.813 582.231 619.573 582.033 628.334C581.835 637.094 586.235 645.572 592.686 651.502C600.906 659.031 615.535 667.169 626.499 661.663C639.897 654.941 643.519 638.665 636.657 625.772L636.671 625.758Z" fill="#5B5A60"/>
<path d="M708.668 619.899C717.412 613.318 722.774 602.293 724.443 590.815C725.433 583.965 725.15 576.606 722.094 570.421C717.638 561.406 707.621 556.424 698.326 557.33C689.031 558.236 680.67 564.378 675.308 572.573C668.475 582.989 661.91 600.878 669.267 612.809C678.251 627.372 695.964 629.452 708.668 619.899Z" fill="#5B5A60"/>
<path d="M608.22 587.39C614.049 595.118 623.825 601.444 635.285 602.788C647.254 604.19 659.307 600.085 668.843 594.325C687.051 583.329 698.425 565.878 699.006 548.032C699.586 530.186 689.371 512.311 671.913 500.621C662.674 494.436 650.918 489.851 638.723 490.36C626.471 490.87 615.181 496.615 608.051 504.343C600.92 512.07 597.581 521.567 596.563 531.021C594.723 548.244 596.676 572.12 608.206 587.419L608.22 587.39Z" fill="#444347"/>
<path d="M656.534 570.577H646.589V732.214H656.534V570.577Z" fill="#161618"/>
<path d="M616.732 633.519L609.699 640.555L649.865 680.734L656.898 673.699L616.732 633.519Z" fill="#161618"/>
<path d="M648.795 640.097L655.828 647.132L695.994 606.952L688.961 599.917L648.795 640.097Z" fill="#161618"/>
<path d="M1179.74 211.921L1180.92 219.068L1188.06 220.243C1190.42 220.639 1190.42 224.036 1188.06 224.418L1180.92 225.593L1179.74 232.74C1179.35 235.103 1175.95 235.103 1175.57 232.74L1174.39 225.593L1167.25 224.418C1164.89 224.022 1164.89 220.625 1167.25 220.243L1174.39 219.068L1175.57 211.921C1175.96 209.558 1179.36 209.558 1179.74 211.921Z" fill="#85848C"/>
<path d="M412.559 262.673L413.733 269.82L420.877 270.994C423.24 271.391 423.24 274.787 420.877 275.169L413.733 276.344L412.559 283.491C412.163 285.855 408.767 285.855 408.385 283.491L407.211 276.344L400.066 275.169C397.704 274.773 397.704 271.376 400.066 270.994L407.211 269.82L408.385 262.673C408.781 260.309 412.177 260.309 412.559 262.673Z" fill="#85848C"/>
<path d="M1003.83 2.30687L1005.37 11.6193L1014.68 13.1619C1017.77 13.6714 1017.77 18.1012 1014.68 18.6107L1005.37 20.1533L1003.83 29.4658C1003.32 32.551 998.893 32.551 998.383 29.4658L996.841 20.1533L987.532 18.6107C984.448 18.1012 984.448 13.6714 987.532 13.1619L996.841 11.6193L998.383 2.30687C998.893 -0.778398 1003.32 -0.778398 1003.83 2.30687Z" fill="#85848C"/>
<path d="M811.804 85.7649C806.386 85.7649 806.386 94.1857 811.804 94.1857C817.223 94.1857 817.223 85.7649 811.804 85.7649Z" fill="#85848C"/>
<path d="M278.581 391.985C273.162 391.985 273.162 400.406 278.581 400.406C283.999 400.406 283.999 391.985 278.581 391.985Z" fill="#85848C"/>
<path d="M482.505 246.128C477.086 246.128 477.086 254.549 482.505 254.549C487.923 254.549 487.923 246.128 482.505 246.128Z" fill="#85848C"/>
<path d="M1305.8 290.483C1300.38 290.483 1300.38 298.903 1305.8 298.903C1311.22 298.903 1311.22 290.483 1305.8 290.483Z" fill="#85848C"/>
<path d="M1301.74 509.509C1296.32 509.509 1296.32 517.929 1301.74 517.929C1307.16 517.929 1307.16 509.509 1301.74 509.509Z" fill="#85848C"/>
<path d="M1223.43 395.792C1218.01 395.792 1218.01 404.213 1223.43 404.213C1228.85 404.213 1228.85 395.792 1223.43 395.792Z" fill="#85848C"/>
<path d="M1052 61.7903C1046.58 61.7903 1046.58 70.2112 1052 70.2112C1057.42 70.2112 1057.42 61.7903 1052 61.7903Z" fill="#85848C"/>
<path d="M450.87 795.901H565.693L565.693 308.23H450.87L450.87 795.901Z" fill="#444347"/>
<path d="M548.73 336.889H464.353V353.306H548.73V336.889Z" fill="#85848C"/>
<path d="M548.73 367.968H464.353V384.385H548.73V367.968Z" fill="#85848C"/>
<path d="M548.73 399.047H464.353V415.464H548.73V399.047Z" fill="#85848C"/>
<path d="M548.73 430.126H464.353V446.543H548.73V430.126Z" fill="#85848C"/>
<path d="M548.73 461.206H464.353V477.623H548.73V461.206Z" fill="#85848C"/>
<path d="M548.73 492.299H464.353V508.716H548.73V492.299Z" fill="#85848C"/>
<path d="M548.73 523.378H464.353V539.795H548.73V523.378Z" fill="#85848C"/>
<path d="M548.73 554.457H464.353V570.874H548.73V554.457Z" fill="#85848C"/>
<path d="M548.73 585.536H464.353V601.953H548.73V585.536Z" fill="#85848C"/>
<path d="M548.73 616.616H464.353V633.033H548.73V616.616Z" fill="#85848C"/>
<path d="M548.73 647.695H464.353V664.112H548.73V647.695Z" fill="#85848C"/>
<path d="M548.73 678.774H464.353V695.191H548.73V678.774Z" fill="#85848C"/>
<path d="M548.73 709.853H464.353V726.27H548.73V709.853Z" fill="#85848C"/>
<path d="M548.73 740.932H464.353V757.349H548.73V740.932Z" fill="#85848C"/>
<path d="M1134.65 324.392L1201.61 273.103L1274.74 324.392V647.765H1134.65V324.392Z" fill="#161618"/>
<path d="M1058.51 324.392H1134.65L1201.61 273.103H1128.02L1058.51 324.392Z" fill="#444347"/>
<path d="M1058.51 647.765H1134.65V324.392H1058.51V647.765Z" fill="#444347"/>
<path d="M1123.41 343.385H1067.45V354.268H1123.41V343.385Z" fill="#85848C"/>
<path d="M1123.41 364.005H1067.45V374.889H1123.41V364.005Z" fill="#85848C"/>
<path d="M1123.41 384.612H1067.45V395.495H1123.41V384.612Z" fill="#85848C"/>
<path d="M1123.41 405.218H1067.45V416.101H1123.41V405.218Z" fill="#85848C"/>
<path d="M1123.41 425.824H1067.45V436.707H1123.41V425.824Z" fill="#85848C"/>
<path d="M1123.41 446.444H1067.45V457.328H1123.41V446.444Z" fill="#85848C"/>
<path d="M1123.41 467.051H1067.45V477.934H1123.41V467.051Z" fill="#85848C"/>
<path d="M1123.41 487.657H1067.45V498.54H1123.41V487.657Z" fill="#85848C"/>
<path d="M1123.41 508.277H1067.45V519.161H1123.41V508.277Z" fill="#85848C"/>
<path d="M1123.41 528.883H1067.45V539.767H1123.41V528.883Z" fill="#85848C"/>
<path d="M1123.41 549.49H1067.45V560.373H1123.41V549.49Z" fill="#85848C"/>
<path d="M1123.41 570.096H1067.45V580.979H1123.41V570.096Z" fill="#85848C"/>
<path d="M1123.41 590.716H1067.45V601.6H1123.41V590.716Z" fill="#85848C"/>
<path d="M1123.41 611.323H1067.45V622.206H1123.41V611.323Z" fill="#85848C"/>
<path d="M732.988 756.684C733.073 745.659 731.022 734.493 725.872 724.614C720.722 714.75 712.347 706.244 701.807 701.772C691.267 697.3 678.548 697.158 668.39 702.395C658.232 707.617 651.116 717.566 651.767 728.577C649.701 724.642 644.735 722.307 640.208 723.142C635.681 723.977 630.163 727.02 629.781 731.407C627.263 725.789 620.458 722.491 614.092 723.072C607.725 723.652 602.01 727.671 598.713 732.922C595.403 738.158 593.45 744.258 593.832 750.372C590.564 748.122 585.825 748.376 582.472 750.513C579.119 752.651 577.096 756.373 576.53 760.18C575.964 763.987 576.148 766.888 577.463 770.525C571.507 770.766 565.735 773.809 562.354 778.507C558.972 783.206 558.039 790.608 559.92 796.014H732.974V756.698L732.988 756.684Z" fill="#2C2C2E"/>
<path d="M450.8 637.335C442.297 623.621 430.116 614.125 414.101 612.299C398.072 610.473 381.335 616.361 369.974 627.81C358.119 639.769 351.384 657.644 335.992 664.494C325.82 669.023 314.12 667.579 303.099 669.178C278.581 672.745 218.397 701.828 218.397 796H451.465L450.814 637.335H450.8Z" fill="#5B5A60"/>
<path d="M1113.43 609.369C1123.31 593.292 1140.74 582.168 1159.37 580.031C1178 577.894 1197.45 584.786 1210.67 598.217C1224.46 612.228 1232.29 633.174 1250.17 641.199C1262 646.506 1275.61 644.808 1288.41 646.69C1316.9 650.865 1386.89 684.944 1386.89 795.264H1115.92L1113.42 609.369H1113.43Z" fill="#5B5A60"/>
<path d="M972.847 517.377C982.722 501.3 1000.15 490.176 1018.78 488.039C1037.42 485.902 1056.87 492.794 1070.08 506.225C1083.88 520.236 1091.7 541.182 1109.58 549.207C1121.41 554.514 1135.02 552.816 1147.82 554.698C1176.32 558.873 1199.87 581.206 1212.08 607.487C1224.29 633.783 1234.9 674.245 1234.39 703.272H975.351L972.847 517.377Z" fill="#5B5A60"/>
<path d="M1052 571.738C1062.27 568.865 1071.17 571.865 1078.8 579.309C1086.42 586.753 1089.71 598.373 1087.09 608.718C1086.65 610.445 1085.04 612.667 1083.44 611.903C1081.84 611.138 1080.96 609.284 1080.92 607.515C1080.88 605.746 1081.53 604.02 1082.31 602.435C1084.84 597.283 1089.18 592.641 1094.81 591.466C1100.84 590.207 1107.52 593.589 1110.05 599.194C1112.6 604.798 1110.74 612.058 1105.83 615.752C1105.21 604.84 1112.99 595.486 1123.22 591.679C1133.45 587.857 1145.97 591.452 1152.63 600.099C1159.3 608.747 1159.57 621.781 1153.27 630.697C1151.45 633.273 1148.26 635.722 1145.38 634.405C1143.07 633.344 1142.32 630.174 1143.31 627.839C1144.3 625.503 1146.57 623.932 1148.9 622.956C1158.69 618.866 1171.34 624.428 1174.95 634.405C1178.55 644.383 1172.36 656.752 1162.23 659.852C1160.81 654.261 1162.18 651.686 1167.24 648.898C1172.29 646.124 1178.55 646.265 1184 648.162C1192.98 651.289 1200.18 659.144 1202.51 668.386C1204.83 677.627 1202.21 687.945 1195.76 694.95C1193.79 697.101 1191.31 699.012 1188.41 699.338C1185.51 699.663 1182.25 697.88 1181.81 694.993C1181.43 692.459 1183.36 689.983 1185.78 689.148C1188.2 688.313 1190.9 688.85 1193.22 689.926C1198.44 692.346 1202.25 697.597 1202.93 703.314C1203.61 709.032 1201.13 715.033 1196.62 718.599C1195.52 707.192 1206.93 696.818 1218.36 697.653C1229.8 698.488 1239.23 708.947 1240.46 720.34C1241.69 731.733 1235.62 743.196 1226.43 750.046C1222.58 752.919 1216.48 754.787 1213.48 751.037C1211.38 748.405 1212.35 744.215 1214.9 742.022C1217.45 739.828 1221.08 739.319 1224.42 739.658C1231.85 740.423 1238.75 745.164 1242.15 751.815C1245.53 758.481 1245.29 766.846 1241.52 773.299C1239.83 776.215 1236.37 778.988 1233.35 777.474C1230.73 776.158 1230.48 772.167 1232.27 769.86C1234.08 767.553 1237.18 766.662 1240.11 766.478C1247.23 766.039 1254.47 769.195 1259.01 774.7C1263.55 780.206 1265.26 788.98 1263.5 795.887H1051.99V571.723L1052 571.738Z" fill="#2C2C2E"/>
<path d="M1130.17 714.438C1133.79 707.631 1140.6 702.847 1147.99 700.654C1152.41 699.352 1157.26 698.927 1161.56 700.569C1167.83 702.975 1171.9 709.683 1172.05 716.406C1172.19 723.114 1168.82 729.624 1163.88 734.167C1157.59 739.941 1146.37 746.183 1137.96 741.965C1127.69 736.814 1124.92 724.345 1130.18 714.453L1130.17 714.438Z" fill="#5B5A60"/>
<path d="M1074.98 709.938C1068.27 704.9 1064.16 696.45 1062.88 687.647C1062.12 682.397 1062.34 676.75 1064.69 672.009C1068.12 665.102 1075.78 661.281 1082.92 661.975C1090.05 662.668 1096.45 667.381 1100.56 673.651C1105.79 681.647 1110.83 695.346 1105.18 704.489C1098.31 715.655 1084.71 717.241 1074.98 709.924V709.938Z" fill="#5B5A60"/>
<path d="M1151.98 685.029C1147.51 690.959 1140.02 695.799 1131.24 696.833C1122.08 697.908 1112.82 694.752 1105.52 690.336C1091.57 681.916 1082.84 668.527 1082.41 654.842C1081.95 641.156 1089.79 627.456 1103.17 618.498C1110.25 613.757 1119.26 610.233 1128.61 610.629C1138.01 611.025 1146.65 615.427 1152.13 621.342C1157.6 627.258 1160.16 634.547 1160.93 641.793C1162.33 654.997 1160.84 673.297 1152 685.029H1151.98Z" fill="#444347"/>
<path d="M1114.95 795.901H1122.57V672.136H1114.95V795.901Z" fill="#161618"/>
<path d="M1114.7 751.173L1120.09 756.567L1150.89 725.764L1145.49 720.37L1114.7 751.173Z" fill="#161618"/>
<path d="M1090.11 694.654L1084.72 700.048L1115.51 730.851L1120.91 725.457L1090.11 694.654Z" fill="#161618"/>
<path d="M1058.52 496.219H943.703V795.901H1058.52V496.219Z" fill="#161618"/>
<path d="M1058.51 496.219H943.703L842.731 418.861H953.705L1058.51 496.219Z" fill="#161618"/>
</g>
<defs>
<clipPath id="clip0_958_3322">
<rect width="1405" height="796" fill="white"/>
</clipPath>
</defs>
</svg>
